<svg xmlns="http://www.w3.org/2000/svg" width="32" height="32" viewBox="0 0 32 32">
  <defs>
    <linearGradient id="grad" x1="0%" y1="0%" x2="100%" y2="100%">
      <stop offset="0%" style="stop-color:#0D4B8C;stop-opacity:1" />
      <stop offset="100%" style="stop-color:#1665BB;stop-opacity:1" />
    </linearGradient>
  </defs>
  
  <!-- Background -->
  <rect width="32" height="32" rx="4" fill="url(#grad)"/>
  
  <!-- Wrench and Car Combined Symbol -->
  <g fill="white" transform="translate(4, 4)">
    <!-- Simplified Car Shape -->
    <path d="M16 14h-8c-1.1 0-2-.9-2-2l1-3h10l1 3c0 1.1-.9 2-2 2z"/>
    <circle cx="7" cy="14" r="2" />
    <circle cx="17" cy="14" r="2" />
    
    <!-- Wrench -->
    <path d="M21 7.6c0-1.5-1.2-2.7-2.7-2.7-.4 0-.8.1-1.1.3L14 8.4c-.3.3-.3.8 0 1.1l2.5 2.5c.3.3.8.3 1.1 0l3.2-3.2c.2-.3.3-.7.3-1.1z" />
  </g>
</svg>